<svg version="1.2" baseProfile="tiny-ps" xmlns="http://www.w3.org/2000/svg" viewBox="0 0 457 202" width="457" height="202">
	<title>temankeud354-svg</title>
	<style>
		tspan { white-space:pre }
		.shp0 { fill: #ffff00 } 
	</style>
	<path id="Shape 6" class="shp0" d="M267 192L245 192L267 181" />
	<path id="Shape 5" class="shp0" d="M448 20L448 4L436 20" />
	<path id="Shape 4" class="shp0" d="M437 20L447 7" />
	<path id="Shape 3" class="shp0" d="M173 20L197 9L173 8" />
	<path id="SISTEM INFORMASI   KEUANGAN DESA" fill="#ffffff" aria-label="SISTEM INFORMASI
  KEUANGAN DESA"  d="M49.61 50.3C42.84 50.3 38.88 54.7 38.88 61.13C38.88 71.91 50.92 71.47 50.92 75.43C50.92 76.81 50.27 77.47 48.84 77.47C46.52 77.47 44.22 76.86 40.42 75.76L39.81 83.95C42.84 84.94 45.7 85.55 49.72 85.55C56.86 85.55 60.61 81.48 60.61 74.61C60.61 64.27 48.62 63.99 48.62 60.91C48.62 59.48 49.61 58.82 51.2 58.82C53.02 58.82 55.6 59.37 58.68 60.09L59.78 51.28C56.86 50.73 53.02 50.3 49.61 50.3ZM73.81 85L73.81 50.84L64.45 50.84L64.45 85ZM88.38 50.3C81.61 50.3 77.66 54.7 77.66 61.13C77.66 71.91 89.7 71.47 89.7 75.43C89.7 76.81 89.04 77.47 87.61 77.47C85.3 77.47 82.99 76.86 79.19 75.76L78.59 83.95C81.61 84.94 84.47 85.55 88.49 85.55C95.64 85.55 99.38 81.48 99.38 74.61C99.38 64.27 87.39 63.99 87.39 60.91C87.39 59.48 88.38 58.82 89.97 58.82C91.79 58.82 94.38 59.37 97.45 60.09L98.56 51.28C95.64 50.73 91.79 50.3 88.38 50.3ZM122.53 59.15L123.08 50.84L100.53 50.84L99.98 59.15L106.75 59.15L106.75 85L116.16 85L116.16 59.15ZM143.71 85L144.26 77.3L134.63 77.3L134.63 71.64L142.5 71.64L142.5 64.38L134.63 64.38L134.63 59.26L143.71 59.26L144.26 50.84L125.23 50.84L125.23 85ZM180.5 85L179.35 50.84L167.14 50.84L164.17 69.33L163.73 69.33L160.65 50.84L148.28 50.84L147.12 85L155.64 85L155.64 67.18L156.19 67.18L159.28 85L168.13 85L171.38 67.18L171.87 67.18L171.87 85ZM206.47 85L206.47 50.84L197.12 50.84L197.12 85ZM236.77 85L236.77 50.84L228.36 50.84L228.36 67.23L227.91 67.23L221.15 50.84L211.85 50.84L211.85 85L220.22 85L220.22 69.11L220.66 69.11L227.75 85ZM260.09 59.26L260.64 50.84L241.61 50.84L241.61 85L251.01 85L251.01 71.64L258.33 71.64L258.33 64.38L251.01 64.38L251.01 59.26ZM275.22 50.3C265.53 50.3 261.69 55.52 261.69 67.78C261.69 79.61 265.43 85.55 275.05 85.55C284.79 85.55 288.63 79.72 288.63 67.4C288.63 55.63 284.95 50.3 275.22 50.3ZM275.05 58.98C278.57 58.98 279.18 61.13 279.18 67.62L279.18 69.38C279.18 75.92 278.57 77.58 275.38 77.58C271.97 77.58 271.25 75.98 271.25 68.89L271.25 67.56C271.25 61.24 271.75 58.98 275.05 58.98ZM315.75 61.68C315.75 54.03 312.4 50.84 305.13 50.84L292.38 50.84L292.38 85L301.62 85L301.62 72.68L302.88 72.68L306.29 85L316.47 85L311.9 70.48C314.49 68.34 315.75 65.91 315.75 61.68ZM305.69 62.95C305.69 66.08 304.92 66.91 303.05 66.91L301.62 66.91L301.62 59.2L303.1 59.2C304.86 59.2 305.69 60.2 305.69 62.95ZM352.6 85L351.44 50.84L339.24 50.84L336.26 69.33L335.82 69.33L332.75 50.84L320.37 50.84L319.21 85L327.74 85L327.74 67.18L328.29 67.18L331.37 85L340.23 85L343.47 67.18L343.96 67.18L343.96 85ZM381.64 85L375.37 50.84L361.4 50.84L355.13 85L363.88 85L364.92 79.61L371.41 79.61L372.46 85ZM370.37 73.17L366.13 73.17L368.06 60.97L368.44 60.97ZM393.69 50.3C386.92 50.3 382.96 54.7 382.96 61.13C382.96 71.91 395.01 71.47 395.01 75.43C395.01 76.81 394.35 77.47 392.92 77.47C390.61 77.47 388.3 76.86 384.5 75.76L383.9 83.95C386.92 84.94 389.78 85.55 393.8 85.55C400.95 85.55 404.69 81.48 404.69 74.61C404.69 64.27 392.7 63.99 392.7 60.91C392.7 59.48 393.69 58.82 395.28 58.82C397.1 58.82 399.68 59.37 402.76 60.09L403.86 51.28C400.95 50.73 397.1 50.3 393.69 50.3ZM417.89 85L417.89 50.84L408.54 50.84L408.54 85ZM87.72 151L81.62 134.5L88.27 116.84L78.15 116.84L73.2 131.14L72.65 131.14L72.65 116.84L63.52 116.84L63.52 151L72.65 151L72.65 138.13L73.2 138.13L77.33 151ZM108.68 151L109.23 143.3L99.6 143.3L99.6 137.63L107.47 137.63L107.47 130.38L99.6 130.38L99.6 125.26L108.68 125.26L109.23 116.84L90.2 116.84L90.2 151ZM125.06 143.13C122.87 143.13 122.04 142.03 122.04 139.78L122.04 116.84L112.42 116.84L112.42 140.38C112.42 148.31 116.65 151.55 124.68 151.55C132.82 151.55 137.44 148.36 137.44 140.28L137.44 116.84L127.98 116.84L127.98 139.72C127.98 142.03 127.32 143.13 125.06 143.13ZM166.81 151L160.54 116.84L146.57 116.84L140.3 151L149.04 151L150.09 145.61L156.58 145.61L157.63 151ZM155.53 139.18L151.3 139.18L153.22 126.97L153.61 126.97ZM194.59 151L194.59 116.84L186.17 116.84L186.17 133.24L185.73 133.24L178.97 116.84L169.67 116.84L169.67 151L178.03 151L178.03 135.11L178.47 135.11L185.56 151ZM212.51 125.42C214.66 125.42 217.08 126.14 220 127.02L221.48 118.06C218.78 116.9 215.48 116.3 211.63 116.3C201.63 116.3 198.44 123.34 198.44 134.17C198.44 144.95 201.79 151.55 209.93 151.55C213.06 151.55 214.38 150.39 215.76 149.24L215.98 149.24L216.86 151L223.35 151L223.35 132.13L212.84 132.13L212.84 138.63L215.32 138.63L215.32 142.81C214.22 143.03 213.67 143.25 212.35 143.25C208.61 143.25 208 140.11 208 134C208 129 208.61 125.42 212.51 125.42ZM252.5 151L246.23 116.84L232.26 116.84L225.99 151L234.73 151L235.78 145.61L242.27 145.61L243.31 151ZM241.22 139.18L236.99 139.18L238.91 126.97L239.3 126.97ZM280.27 151L280.27 116.84L271.86 116.84L271.86 133.24L271.42 133.24L264.65 116.84L255.36 116.84L255.36 151L263.72 151L263.72 135.11L264.16 135.11L271.25 151ZM322.07 133.18C322.07 123.34 318.83 116.84 308.21 116.84L296.66 116.84L296.66 151L307.99 151C318.88 151 322.07 143.19 322.07 133.18ZM312.45 134.12C312.45 139.84 312.01 143.08 307.83 143.08L306.01 143.08L306.01 125.15L307.66 125.15C311.84 125.15 312.45 128.18 312.45 134.12ZM344.07 151L344.62 143.3L335 143.3L335 137.63L342.86 137.63L342.86 130.38L335 130.38L335 125.26L344.07 125.26L344.62 116.84L325.59 116.84L325.59 151ZM357 116.3C350.23 116.3 346.27 120.69 346.27 127.13C346.27 137.91 358.32 137.47 358.32 141.43C358.32 142.81 357.66 143.47 356.23 143.47C353.92 143.47 351.61 142.86 347.81 141.76L347.21 149.95C350.23 150.94 353.09 151.55 357.11 151.55C364.26 151.55 368 147.48 368 140.61C368 130.26 356.01 129.99 356.01 126.91C356.01 125.48 357 124.82 358.59 124.82C360.41 124.82 362.99 125.37 366.07 126.09L367.17 117.28C364.26 116.73 360.41 116.3 357 116.3ZM395.83 151L389.56 116.84L375.59 116.84L369.32 151L378.06 151L379.11 145.61L385.6 145.61L386.64 151ZM384.55 139.18L380.32 139.18L382.24 126.97L382.63 126.97Z" />
	<path id="Shape 1" class="shp0" d="M8 8L20 8L20 171L8 185L8 8Z" />
	<path id="Shape 1 copy" class="shp0" d="M438.96 179.41L439.04 191.41L267.04 192.59L266.96 180.59L438.96 179.41Z" />
	<path id="Shape 1 copy 2" class="shp0" d="M436 20L448 20L448 192L436 192L436 20Z" />
	<path id="Shape 2" class="shp0" d="M8 8L173 8L173 13L173 20L90 20L8 20L8 8Z" />
</svg>