<svg xmlns="http://www.w3.org/2000/svg" viewBox="0 0 425.2 396.85"><defs><style>.cls-1{isolation:isolate;}.cls-2{fill:#5a6d76;}.cls-3{fill:#356fb7;}.cls-3,.cls-4,.cls-5,.cls-6{opacity:0.8;}.cls-4{fill:#15becc;}.cls-4,.cls-5,.cls-6{mix-blend-mode:multiply;}.cls-5{fill:#7ab752;}.cls-6{fill:#ef8535;}.cls-7{fill:#0b3649;}.cls-8{fill:#ccdc29;}.cls-11,.cls-9{fill:#029a8e;}.cls-10{fill:#fcb443;}.cls-11{stroke:#feffff;stroke-miterlimit:10;stroke-width:2px;}.cls-12{fill:#84d2f6;}.cls-13{fill:#39a4dd;}.cls-14{fill:#72bada;}.cls-15{fill:#1593d1;}.cls-16{fill:#f5f6f6;}.cls-17{fill:#d6d5d5;}</style></defs><g class="cls-1"><g id="Layer_2" data-name="Layer 2"><path class="cls-2" d="M265,208.08H211.15a9.17,9.17,0,0,1-9.18-9.17V144.55a9.18,9.18,0,0,1,9.18-9.17H265a9.18,9.18,0,0,1,9.17,9.17v54.36A9.17,9.17,0,0,1,265,208.08Z"/><path class="cls-3" d="M83.42,148.72a8.86,8.86,0,0,1-8.65-7.4c-3.65-20.59,5.53-39.59,23.38-48.41,18.3-9,39.43-4.81,52.59,10.5a9.14,9.14,0,0,1-.8,12.7,8.68,8.68,0,0,1-12.43-.82c-9.09-10.58-22.47-10.73-31.7-6.17-10.85,5.36-16,16.2-13.71,29A9,9,0,0,1,85,148.57,8.64,8.64,0,0,1,83.42,148.72Z"/><path class="cls-4" d="M146.16,118.41a8.79,8.79,0,0,1-.87.15,9,9,0,0,1-9.8-8C130.63,68.89,156.84,43.09,185,36c26.88-6.75,62.38,2.6,76.71,39.15a9,9,0,0,1-4.9,11.65,8.83,8.83,0,0,1-11.46-5.1c-10.44-26.61-35.66-33.34-56-28.24C170.17,58.3,149.15,75.64,153,108.64A8.87,8.87,0,0,1,146.16,118.41Z"/><path class="cls-5" d="M290,125.51a8.7,8.7,0,0,1-2.44-1.05,9,9,0,0,1-2.81-12.36c5.14-8.4,4.84-17.85-.77-24.09-5.86-6.53-15.83-6.94-26.45-1.54a8.8,8.8,0,0,1-11.9-4,9.41,9.41,0,0,1,4.18-12.28c21.35-10.87,38.44-4.2,47.31,5.67,10.9,12.13,12,30.48,2.66,45.67A8.89,8.89,0,0,1,290,125.51Z"/><path class="cls-6" d="M310.54,185.2a40,40,0,0,1-19.6-5.14,9.11,9.11,0,0,1-3.48-12.22,8.71,8.71,0,0,1,12-3.56,22.47,22.47,0,0,0,24.45-1.51,23.41,23.41,0,0,0,9.41-15.24,23.77,23.77,0,0,0-4-17.56,22.9,22.9,0,0,0-14.92-9.62,22.54,22.54,0,0,0-17.05,3.93,8.68,8.68,0,0,1-12.26-2.22,9.12,9.12,0,0,1,2.17-12.53,39.77,39.77,0,0,1,30.07-6.93,40.32,40.32,0,0,1,26.34,16.94,42,42,0,0,1,7,31,41.39,41.39,0,0,1-16.57,26.92A39.92,39.92,0,0,1,310.54,185.2Z"/><path class="cls-7" d="M247.63,366.63c-5.33,0-8.41-.72-10.72-3s-3.13-6.37-3.13-13v-3.9c0-6.62.82-10.62,3.13-12.93s5.39-3.08,10.72-3.08h1.13a30,30,0,0,1,8.11,1.08c1.28.36,1.79.82,1.79,1.9v.87a1.06,1.06,0,0,1-1.18,1.18c-.1,0-1-.26-2.77-.77a21.24,21.24,0,0,0-6.05-.77h-.92c-4.31,0-6.47.46-8.06,2.46s-2,4.72-2,10.11v3.8c0,5.38.36,8.2,2,10.2s3.75,2.36,8.06,2.36h1.13a21.54,21.54,0,0,0,6.1-.77c1.74-.51,2.67-.76,2.77-.76a1.06,1.06,0,0,1,1.18,1.18v.92c0,1.08-.51,1.49-1.8,1.9a31.35,31.35,0,0,1-8.25,1Z"/><path class="cls-7" d="M275.08,366.38c-4.26,0-7.18-.93-8.77-2.83s-2.41-5.48-2.41-10.82V332.36a1.3,1.3,0,0,1,1.33-1.38h1.23a1.22,1.22,0,0,1,1.39,1.38v20.11c0,4.36.46,7.19,1.43,8.47s3.13,1.95,6.42,1.95h9.54a1.22,1.22,0,0,1,1.38,1.38V365a1.21,1.21,0,0,1-1.38,1.34Z"/><path class="cls-7" d="M307.66,330.72c6.62,0,9.9,1.34,11.59,5.85.88,2.21,1.34,5.44,1.34,9.7v4.41c0,8.67-1.75,13-5.29,14.72a18.79,18.79,0,0,1-7.64,1.23H303a18.4,18.4,0,0,1-7.59-1.23,8.2,8.2,0,0,1-3.95-4.72c-.87-2.31-1.28-5.64-1.28-10v-4.41c0-6.42.77-10.21,2.87-12.52s5-3,10-3Zm7.23,5.8c-1.12-1.54-3.59-2.31-7.33-2.31h-4.41c-7.65.31-8.73,1.74-9,12.21v4.1a33.37,33.37,0,0,0,.72,8.06,5.88,5.88,0,0,0,2.56,3.59,12.45,12.45,0,0,0,5.7,1h4.41c3.74,0,6.21-.77,7.33-2.36s1.7-5,1.7-10.26v-4.1C316.59,341.34,316,338,314.89,336.52Z"/><path class="cls-7" d="M339.06,366.63a18.34,18.34,0,0,1-7.59-1.23c-3.49-1.69-5.24-5.95-5.24-14.72V332.36a1.31,1.31,0,0,1,1.34-1.38h1.23a1.22,1.22,0,0,1,1.38,1.38v18.16a33.9,33.9,0,0,0,.72,8.06c1,3.44,3.13,4.56,8.26,4.56h2.26c3.74,0,6.21-.77,7.33-2.36s1.7-5,1.7-10.26V332.36a1.31,1.31,0,0,1,1.38-1.38h1.23a1.32,1.32,0,0,1,1.39,1.38v18.32a29.56,29.56,0,0,1-1.33,10,8,8,0,0,1-4,4.72,18.76,18.76,0,0,1-7.64,1.23Z"/><path class="cls-7" d="M360.86,332.36A1.31,1.31,0,0,1,362.2,331H376c5.13,0,8.05.72,10.31,3s3,6.1,3,12.51v3.9c0,6.57-.77,10.47-3,12.88s-5.18,3.08-10.31,3.08H362.2a1.28,1.28,0,0,1-1.34-1.34Zm4.93,2.11c-.77,0-1,.25-1,1v26.42c0,.77.21,1,1,1h10c4.11,0,6.21-.46,7.65-2.36s1.84-4.77,1.84-10.26v-3.59c0-10.16-1.59-12.21-9.49-12.21Z"/><path class="cls-7" d="M47.44,309.11v-3.72a3.09,3.09,0,0,1,3.26-3.32,28.07,28.07,0,0,1,4.91,1,29.11,29.11,0,0,0,7.1,1h.6c5,0,7-.73,7-2.79V301a2.41,2.41,0,0,0-1.59-2.13,31.66,31.66,0,0,0-6.44-2.19c-6.31-1.72-10.56-3.45-12.75-5.24s-3.25-4.65-3.25-8.7v-.13a19.57,19.57,0,0,1,1.33-7.9c1.86-4,7-6.38,16.46-6.38h2a48.24,48.24,0,0,1,12.62,1.33c1.72.53,2.59,1.86,2.59,3.92v4.18A3.09,3.09,0,0,1,78,281.09a29,29,0,0,1-4.78-1,28.41,28.41,0,0,0-7.23-1h-.6c-4.65,0-7,.93-7,2.85v.34a2.05,2.05,0,0,0,1.46,1.92,65.29,65.29,0,0,0,6.57,1.93c6.24,1.66,10.49,3.38,12.68,5.17s3.32,4.72,3.32,8.77v.26c0,5.05-.86,8.17-3.58,10.76s-7.44,3.72-14.87,3.72H62a43.89,43.89,0,0,1-11.75-1.26C48.37,313,47.44,311.43,47.44,309.11Z"/><path class="cls-7" d="M90.73,314.49a3.21,3.21,0,0,1-3.32-3.32V272a3.2,3.2,0,0,1,3.32-3.31h5.51A3.21,3.21,0,0,1,99.56,272v39.18a3.22,3.22,0,0,1-3.32,3.32Z"/><path class="cls-7" d="M105.73,309.11v-3.72a3.08,3.08,0,0,1,3.25-3.32,27.93,27.93,0,0,1,4.92,1,29.11,29.11,0,0,0,7.1,1h.6c5,0,7-.73,7-2.79V301a2.41,2.41,0,0,0-1.59-2.13,31.66,31.66,0,0,0-6.44-2.19c-6.31-1.72-10.56-3.45-12.75-5.24s-3.26-4.65-3.26-8.7v-.13a19.74,19.74,0,0,1,1.33-7.9c1.86-4,7-6.38,16.47-6.38h2a48.1,48.1,0,0,1,12.61,1.33c1.73.53,2.59,1.86,2.59,3.92v4.18a3.08,3.08,0,0,1-3.25,3.32,28.79,28.79,0,0,1-4.78-1,28.43,28.43,0,0,0-7.24-1h-.59c-4.65,0-7,.93-7,2.85v.34a2.06,2.06,0,0,0,1.47,1.92,64.43,64.43,0,0,0,6.57,1.93c6.24,1.66,10.49,3.38,12.68,5.17s3.32,4.72,3.32,8.77v.26c0,5.05-.86,8.17-3.59,10.76s-7.43,3.72-14.87,3.72h-2a43.84,43.84,0,0,1-11.75-1.26C106.66,313,105.73,311.43,105.73,309.11Z"/><path class="cls-7" d="M149,314.49a3.21,3.21,0,0,1-3.31-3.32V272a3.2,3.2,0,0,1,3.31-3.31h5.45a3.21,3.21,0,0,1,3.32,3.31v12.75c0,.87.26,1.13,1.13,1.13h1.19c.67,0,1.4-.53,2.13-1.66l7.63-11.48c1.93-3,3-4.05,5.45-4.05H182c2.39,0,3.52,2.12,1.66,4.78l-10,13.41c-1.27,1.66-1.86,2.79-1.8,3.45s.8,1.92,2.26,4l10.76,15.14c1.85,2.66.66,5.05-1.8,5.05h-7.23c-2.19,0-4.12-1.33-5.78-4.05l-7.44-11.82c-1.12-1.79-1.46-2.13-2.45-2.13h-1.26a1,1,0,0,0-1.13,1.13v13.55a3.22,3.22,0,0,1-3.32,3.32Z"/><path class="cls-7" d="M186.79,286.67c.33-14.61,4.58-18,15.27-18h16.66A3.2,3.2,0,0,1,222,272v4.12a3.2,3.2,0,0,1-3.32,3.32H205.84c-2.92,0-4.78.33-5.64.93s-1.26,2.06-1.26,4.25v.2c0,.86.26,1.13,1.13,1.13h16a3.21,3.21,0,0,1,3.32,3.32v3.91a3.21,3.21,0,0,1-3.32,3.32h-16a1,1,0,0,0-1.13,1.13v.2c0,2.52.4,4.12,1.19,4.85s2.72,1.06,5.71,1.06h12.88a3.2,3.2,0,0,1,3.32,3.32v4.12a3.21,3.21,0,0,1-3.32,3.32H202.06q-8.17,0-11.75-3.79c-2.33-2.52-3.52-7.3-3.52-14.27Z"/><path class="cls-7" d="M244.61,314.82c-6.57,0-11.35-1.53-14.27-4.52S226,301.8,226,293.9V272a3.21,3.21,0,0,1,3.32-3.31h5.51a3.2,3.2,0,0,1,3.32,3.31V293.7c0,4.19.4,7,1.26,8.37s2.66,2,5.31,2h1.73c2.66,0,4.38-.66,5.25-2s1.32-4.18,1.32-8.37V272a3.21,3.21,0,0,1,3.32-3.31h5.51a3.2,3.2,0,0,1,3.32,3.31V293.9c0,7.9-1.46,13.42-4.38,16.4s-7.63,4.52-14.21,4.52Z"/><path class="cls-7" d="M270.83,272a3.21,3.21,0,0,1,3.32-3.31h18.06c6.64,0,11.42,1.52,14.27,4.51s4.32,8.5,4.32,16.4v4c0,7.9-1.46,13.41-4.32,16.4s-7.63,4.52-14.27,4.52H274.15a3.22,3.22,0,0,1-3.32-3.32Zm13.08,7.44c-.86,0-1.13.27-1.13,1.13v22c0,.86.27,1.13,1.13,1.13H292c2.66,0,4.45-.66,5.31-2.06s1.33-4.18,1.33-8.43v-3.32c0-4.25-.46-7-1.33-8.43s-2.65-2.06-5.31-2.06Z"/><path class="cls-7" d="M315.11,286.67c.33-14.61,4.58-18,15.27-18h16.67a3.21,3.21,0,0,1,3.32,3.31v4.12a3.21,3.21,0,0,1-3.32,3.32H334.17c-2.93,0-4.78.33-5.65.93s-1.26,2.06-1.26,4.25v.2c0,.86.27,1.13,1.13,1.13h16a3.2,3.2,0,0,1,3.32,3.32v3.91a3.2,3.2,0,0,1-3.32,3.32h-16a1,1,0,0,0-1.13,1.13v.2c0,2.52.4,4.12,1.2,4.85s2.72,1.06,5.71,1.06h12.88a3.21,3.21,0,0,1,3.32,3.32v4.12a3.22,3.22,0,0,1-3.32,3.32H330.38q-8.16,0-11.75-3.79c-2.32-2.52-3.52-7.3-3.52-14.27Z"/><path class="cls-7" d="M354.88,309.11v-3.72a3.08,3.08,0,0,1,3.25-3.32,28.07,28.07,0,0,1,4.91,1,29.12,29.12,0,0,0,7.11,1h.59c5.05,0,7-.73,7-2.79V301a2.43,2.43,0,0,0-1.6-2.13,31.19,31.19,0,0,0-6.44-2.19c-6.31-1.72-10.55-3.45-12.74-5.24s-3.26-4.65-3.26-8.7v-.13a19.74,19.74,0,0,1,1.33-7.9c1.86-4,7-6.38,16.46-6.38h2a48.16,48.16,0,0,1,12.61,1.33c1.73.53,2.59,1.86,2.59,3.92v4.18a3.08,3.08,0,0,1-3.25,3.32,28.79,28.79,0,0,1-4.78-1,28.55,28.55,0,0,0-7.24-1h-.6c-4.64,0-7,.93-7,2.85v.34a2.06,2.06,0,0,0,1.46,1.92,65.78,65.78,0,0,0,6.58,1.93c6.24,1.66,10.48,3.38,12.68,5.17s3.32,4.72,3.32,8.77v.26c0,5.05-.87,8.17-3.59,10.76s-7.44,3.72-14.87,3.72h-2a43.92,43.92,0,0,1-11.76-1.26C355.81,313,354.88,311.43,354.88,309.11Z"/><path class="cls-2" d="M136,215.41h-7.72a1.92,1.92,0,0,1-2.11-1.66v-3.89h12v3.89A1.94,1.94,0,0,1,136,215.41Z"/><path class="cls-2" d="M180.79,215.41h-7.72a1.92,1.92,0,0,1-2.11-1.66v-3.89H182.9v3.89A1.92,1.92,0,0,1,180.79,215.41Z"/><path class="cls-2" d="M185.29,208.35H123.52a8.57,8.57,0,0,1-8.58-8.57V144.22a8.58,8.58,0,0,1,8.58-8.57h61.77a8.57,8.57,0,0,1,8.57,8.57v55.56A8.56,8.56,0,0,1,185.29,208.35Z"/><rect class="cls-8" x="119.83" y="140.42" width="69.15" height="62.65" rx="5.47"/><path class="cls-2" d="M153.83,150a21.73,21.73,0,1,0,21.74,21.73A21.74,21.74,0,0,0,153.83,150Zm0,36a14.29,14.29,0,1,1,14.3-14.29A14.29,14.29,0,0,1,153.83,186Z"/><circle class="cls-2" cx="126.53" cy="146.51" r="1.35"/><circle class="cls-2" cx="182.57" cy="146.51" r="1.35"/><circle class="cls-2" cx="126.53" cy="196.96" r="1.35"/><circle class="cls-2" cx="182.57" cy="196.96" r="1.35"/><path class="cls-9" d="M115.09,152h7.52a2,2,0,0,1,2,2v4.51a2,2,0,0,1-2,2h-7.52a0,0,0,0,1,0,0V152A0,0,0,0,1,115.09,152Z"/><path class="cls-9" d="M115.09,182.6h7.52a2,2,0,0,1,2,2v4.51a2,2,0,0,1-2,2h-7.52a0,0,0,0,1,0,0V182.6A0,0,0,0,1,115.09,182.6Z"/><rect class="cls-10" x="151.19" y="155.24" width="5.28" height="33.62" rx="2.64"/><rect class="cls-10" x="151.19" y="155.24" width="5.28" height="33.62" rx="2.64" transform="translate(-76.6 159.17) rotate(-45)"/><rect class="cls-10" x="151.19" y="155.24" width="5.28" height="33.62" rx="2.64" transform="translate(-18.22 325.88) rotate(-90)"/><rect class="cls-10" x="151.19" y="155.24" width="5.28" height="33.62" rx="2.64" transform="translate(140.95 402.48) rotate(-135)"/><circle class="cls-11" cx="153.83" cy="171.73" r="5.35"/><path class="cls-12" d="M238.07,171.73H206.73V147.58a7.19,7.19,0,0,1,7.19-7.19h24.15Z"/><path class="cls-13" d="M238.07,203.07H213.92a7.19,7.19,0,0,1-7.19-7.18V171.73h31.34Z"/><path class="cls-14" d="M238.07,140.39H213.92a7.19,7.19,0,0,0-7.19,7.19v24.15h31.34Z"/><path class="cls-15" d="M238.07,171.73H206.73v24.16a7.19,7.19,0,0,0,7.19,7.18h24.15Z"/><path class="cls-13" d="M269.41,171.73H238.07V140.39h24.16a7.19,7.19,0,0,1,7.18,7.19Z"/><path class="cls-12" d="M262.23,203.07H238.07V171.73h31.34v24.16A7.19,7.19,0,0,1,262.23,203.07Z"/><path class="cls-16" d="M261.27,157.2H249.52a2,2,0,0,1,0-3.92h11.75a2,2,0,1,1,0,3.92Z"/><path class="cls-17" d="M263.23,155.24H247.56a2,2,0,0,0,2,2h11.75A2,2,0,0,0,263.23,155.24Z"/><path class="cls-16" d="M261.27,193.85H249.52a2,2,0,1,1,0-3.91h11.75a2,2,0,1,1,0,3.91Z"/><path class="cls-16" d="M261.27,186H249.52a2,2,0,0,1,0-3.92h11.75a2,2,0,1,1,0,3.92Z"/><path class="cls-17" d="M263.23,184.06H247.56a2,2,0,0,0,2,2h11.75A2,2,0,0,0,263.23,184.06Z"/><path class="cls-17" d="M263.23,191.89H247.56a2,2,0,0,0,2,2h11.75A2,2,0,0,0,263.23,191.89Z"/><path class="cls-16" d="M217.2,194.08a2,2,0,0,1-1.38-3.34l6.53-6.53a2,2,0,1,1,2.77,2.77l-6.53,6.53A2,2,0,0,1,217.2,194.08Z"/><path class="cls-16" d="M223.73,194.08a2,2,0,0,1-1.38-.57L215.82,187a2,2,0,1,1,2.77-2.77l6.53,6.53a2,2,0,0,1-1.39,3.34Z"/><path class="cls-17" d="M217.7,188.86l-1.88,1.88a2,2,0,0,0,2.77,2.77l1.88-1.88Z"/><path class="cls-17" d="M223.24,188.86H217.7l2.77,2.77,1.88,1.88a2,2,0,0,0,1.38.57,2,2,0,0,0,1.39-3.34Z"/><path class="cls-16" d="M220.47,161.77a2,2,0,0,1-2-2v-9.14a2,2,0,0,1,3.92,0v9.14A2,2,0,0,1,220.47,161.77Z"/><path class="cls-16" d="M225,157.2H215.9a2,2,0,0,1,0-3.92H225a2,2,0,1,1,0,3.92Z"/><path class="cls-17" d="M222.43,157.2h-3.92v2.61a2,2,0,1,0,3.92,0Z"/><path class="cls-17" d="M227,155.24H213.94a2,2,0,0,0,2,2H225A2,2,0,0,0,227,155.24Z"/><rect class="cls-2" x="235.69" y="140.13" width="4.76" height="62.94"/><rect class="cls-2" x="235.69" y="140.42" width="4.76" height="62.65" transform="translate(66.33 409.81) rotate(-90)"/></g></g></svg>