<svg xmlns="http://www.w3.org/2000/svg" viewBox="0 0 425.2 396.85"><defs><style>.cls-1{isolation:isolate;}.cls-2{fill:#5a6d76;}.cls-3{fill:#356fb7;}.cls-3,.cls-4,.cls-5,.cls-6{opacity:0.8;}.cls-4{fill:#15becc;}.cls-4,.cls-5,.cls-6{mix-blend-mode:multiply;}.cls-5{fill:#7ab752;}.cls-6{fill:#ef8535;}.cls-7{font-size:51.3px;font-family:Eurosoft-Regular, Eurosoft;}.cls-7,.cls-9{fill:#0b3649;}.cls-8{letter-spacing:-0.01em;}.cls-9{font-size:66.39px;font-family:Eurosoft-Bold, Eurosoft;font-weight:700;}.cls-10{letter-spacing:-0.03em;}.cls-11{fill:#ccdc29;}.cls-12,.cls-14{fill:#029a8e;}.cls-13{fill:#fcb443;}.cls-14{stroke:#feffff;stroke-miterlimit:10;stroke-width:2px;}.cls-15{fill:#84d2f6;}.cls-16{fill:#39a4dd;}.cls-17{fill:#72bada;}.cls-18{fill:#1593d1;}.cls-19{fill:#f5f6f6;}.cls-20{fill:#d6d5d5;}</style></defs><g class="cls-1"><g id="Layer_2" data-name="Layer 2"><path class="cls-2" d="M265,208.08H211.15a9.17,9.17,0,0,1-9.18-9.17V144.55a9.18,9.18,0,0,1,9.18-9.17H265a9.18,9.18,0,0,1,9.17,9.17v54.36A9.17,9.17,0,0,1,265,208.08Z"/><path class="cls-3" d="M83.42,148.72a8.86,8.86,0,0,1-8.65-7.4c-3.65-20.59,5.53-39.59,23.38-48.41,18.3-9,39.43-4.81,52.59,10.5a9.14,9.14,0,0,1-.8,12.7,8.68,8.68,0,0,1-12.43-.82c-9.09-10.58-22.47-10.73-31.7-6.17-10.85,5.36-16,16.2-13.71,29A9,9,0,0,1,85,148.57,8.64,8.64,0,0,1,83.42,148.72Z"/><path class="cls-4" d="M146.16,118.41a8.79,8.79,0,0,1-.87.15,9,9,0,0,1-9.8-8C130.63,68.89,156.84,43.09,185,36c26.88-6.75,62.38,2.6,76.71,39.15a9,9,0,0,1-4.9,11.65,8.83,8.83,0,0,1-11.46-5.1c-10.44-26.61-35.66-33.34-56-28.24C170.17,58.3,149.15,75.64,153,108.64A8.87,8.87,0,0,1,146.16,118.41Z"/><path class="cls-5" d="M290,125.51a8.7,8.7,0,0,1-2.44-1.05,9,9,0,0,1-2.81-12.36c5.14-8.4,4.84-17.85-.77-24.09-5.86-6.53-15.83-6.94-26.45-1.54a8.8,8.8,0,0,1-11.9-4,9.41,9.41,0,0,1,4.18-12.28c21.35-10.87,38.44-4.2,47.31,5.67,10.9,12.13,12,30.48,2.66,45.67A8.89,8.89,0,0,1,290,125.51Z"/><path class="cls-6" d="M310.54,185.2a40,40,0,0,1-19.6-5.14,9.11,9.11,0,0,1-3.48-12.22,8.71,8.71,0,0,1,12-3.56,22.47,22.47,0,0,0,24.45-1.51,23.41,23.41,0,0,0,9.41-15.24,23.77,23.77,0,0,0-4-17.56,22.9,22.9,0,0,0-14.92-9.62,22.54,22.54,0,0,0-17.05,3.93,8.68,8.68,0,0,1-12.26-2.22,9.12,9.12,0,0,1,2.17-12.53,39.77,39.77,0,0,1,30.07-6.93,40.32,40.32,0,0,1,26.34,16.94,42,42,0,0,1,7,31,41.39,41.39,0,0,1-16.57,26.92A39.92,39.92,0,0,1,310.54,185.2Z"/><text class="cls-7" transform="translate(231.22 366.38)">C<tspan class="cls-8" x="29.6" y="0">L</tspan><tspan x="56.44" y="0">OUD</tspan></text><text class="cls-9" transform="translate(44.26 314.49)">SIS<tspan class="cls-10" x="98.45" y="0">K</tspan><tspan x="140.21" y="0">EUDES</tspan></text><path class="cls-2" d="M136,215.41h-7.72a1.92,1.92,0,0,1-2.11-1.66v-3.89h12v3.89A1.94,1.94,0,0,1,136,215.41Z"/><path class="cls-2" d="M180.79,215.41h-7.72a1.92,1.92,0,0,1-2.11-1.66v-3.89H182.9v3.89A1.92,1.92,0,0,1,180.79,215.41Z"/><path class="cls-2" d="M185.29,208.35H123.52a8.57,8.57,0,0,1-8.58-8.57V144.22a8.58,8.58,0,0,1,8.58-8.57h61.77a8.57,8.57,0,0,1,8.57,8.57v55.56A8.56,8.56,0,0,1,185.29,208.35Z"/><rect class="cls-11" x="119.83" y="140.42" width="69.15" height="62.65" rx="5.47"/><path class="cls-2" d="M153.83,150a21.73,21.73,0,1,0,21.74,21.73A21.74,21.74,0,0,0,153.83,150Zm0,36a14.29,14.29,0,1,1,14.3-14.29A14.29,14.29,0,0,1,153.83,186Z"/><circle class="cls-2" cx="126.53" cy="146.51" r="1.35"/><circle class="cls-2" cx="182.57" cy="146.51" r="1.35"/><circle class="cls-2" cx="126.53" cy="196.96" r="1.35"/><circle class="cls-2" cx="182.57" cy="196.96" r="1.35"/><path class="cls-12" d="M115.09,152h7.52a2,2,0,0,1,2,2v4.51a2,2,0,0,1-2,2h-7.52a0,0,0,0,1,0,0V152A0,0,0,0,1,115.09,152Z"/><path class="cls-12" d="M115.09,182.6h7.52a2,2,0,0,1,2,2v4.51a2,2,0,0,1-2,2h-7.52a0,0,0,0,1,0,0V182.6A0,0,0,0,1,115.09,182.6Z"/><rect class="cls-13" x="151.19" y="155.24" width="5.28" height="33.62" rx="2.64"/><rect class="cls-13" x="151.19" y="155.24" width="5.28" height="33.62" rx="2.64" transform="translate(-76.6 159.17) rotate(-45)"/><rect class="cls-13" x="151.19" y="155.24" width="5.28" height="33.62" rx="2.64" transform="translate(-18.22 325.88) rotate(-90)"/><rect class="cls-13" x="151.19" y="155.24" width="5.28" height="33.62" rx="2.64" transform="translate(140.95 402.48) rotate(-135)"/><circle class="cls-14" cx="153.83" cy="171.73" r="5.35"/><path class="cls-15" d="M238.07,171.73H206.73V147.58a7.19,7.19,0,0,1,7.19-7.19h24.15Z"/><path class="cls-16" d="M238.07,203.07H213.92a7.19,7.19,0,0,1-7.19-7.18V171.73h31.34Z"/><path class="cls-17" d="M238.07,140.39H213.92a7.19,7.19,0,0,0-7.19,7.19v24.15h31.34Z"/><path class="cls-18" d="M238.07,171.73H206.73v24.16a7.19,7.19,0,0,0,7.19,7.18h24.15Z"/><path class="cls-16" d="M269.41,171.73H238.07V140.39h24.16a7.19,7.19,0,0,1,7.18,7.19Z"/><path class="cls-15" d="M262.23,203.07H238.07V171.73h31.34v24.16A7.19,7.19,0,0,1,262.23,203.07Z"/><path class="cls-19" d="M261.27,157.2H249.52a2,2,0,0,1,0-3.92h11.75a2,2,0,1,1,0,3.92Z"/><path class="cls-20" d="M263.23,155.24H247.56a2,2,0,0,0,2,2h11.75A2,2,0,0,0,263.23,155.24Z"/><path class="cls-19" d="M261.27,193.85H249.52a2,2,0,1,1,0-3.91h11.75a2,2,0,1,1,0,3.91Z"/><path class="cls-19" d="M261.27,186H249.52a2,2,0,0,1,0-3.92h11.75a2,2,0,1,1,0,3.92Z"/><path class="cls-20" d="M263.23,184.06H247.56a2,2,0,0,0,2,2h11.75A2,2,0,0,0,263.23,184.06Z"/><path class="cls-20" d="M263.23,191.89H247.56a2,2,0,0,0,2,2h11.75A2,2,0,0,0,263.23,191.89Z"/><path class="cls-19" d="M217.2,194.08a2,2,0,0,1-1.38-3.34l6.53-6.53a2,2,0,1,1,2.77,2.77l-6.53,6.53A2,2,0,0,1,217.2,194.08Z"/><path class="cls-19" d="M223.73,194.08a2,2,0,0,1-1.38-.57L215.82,187a2,2,0,1,1,2.77-2.77l6.53,6.53a2,2,0,0,1-1.39,3.34Z"/><path class="cls-20" d="M217.7,188.86l-1.88,1.88a2,2,0,0,0,2.77,2.77l1.88-1.88Z"/><path class="cls-20" d="M223.24,188.86H217.7l2.77,2.77,1.88,1.88a2,2,0,0,0,1.38.57,2,2,0,0,0,1.39-3.34Z"/><path class="cls-19" d="M220.47,161.77a2,2,0,0,1-2-2v-9.14a2,2,0,0,1,3.92,0v9.14A2,2,0,0,1,220.47,161.77Z"/><path class="cls-19" d="M225,157.2H215.9a2,2,0,0,1,0-3.92H225a2,2,0,1,1,0,3.92Z"/><path class="cls-20" d="M222.43,157.2h-3.92v2.61a2,2,0,1,0,3.92,0Z"/><path class="cls-20" d="M227,155.24H213.94a2,2,0,0,0,2,2H225A2,2,0,0,0,227,155.24Z"/><rect class="cls-2" x="235.69" y="140.13" width="4.76" height="62.94"/><rect class="cls-2" x="235.69" y="140.42" width="4.76" height="62.65" transform="translate(66.33 409.81) rotate(-90)"/></g></g></svg>